<?xml version="1.0" encoding="utf-8"?>
<!-- Generator: Adobe Illustrator 24.1.1, SVG Export Plug-In . SVG Version: 6.00 Build 0)  -->
<svg version="1.1" id="Layer_1" xmlns="http://www.w3.org/2000/svg" xmlns:xlink="http://www.w3.org/1999/xlink" x="0px" y="0px"
	 viewBox="0 0 560 560" style="enable-background:new 0 0 560 560;" xml:space="preserve">
<style type="text/css">
	.st0{display:none;}
	.st1{display:inline;fill:none;}
	.st2{display:inline;fill:none;stroke:#000000;stroke-miterlimit:10;}
	.st3{fill:none;stroke:#6F7070;stroke-width:15;stroke-miterlimit:10;}
</style>
<g id="Layer_1_1_" class="st0">
	<path class="st1" d="M523.6,232c-0.2-0.4-0.4-0.7-0.6-1c0.1-0.1,0.2-0.1,0.3-0.2C523.4,231.2,523.5,231.6,523.6,232z"/>
	<path class="st1" d="M523.6,327.7c-0.1,0.5-0.2,1-0.3,1.5c-0.1-0.1-0.3-0.1-0.4-0.2C523.2,328.5,523.4,328.1,523.6,327.7z"/>
	<path class="st1" d="M523.3,329.2c0.1-0.5,0.2-1,0.3-1.5c-0.2,0.4-0.5,0.9-0.7,1.3"/>
	<path class="st1" d="M523.3,230.8c0.1,0.4,0.2,0.8,0.2,1.2c-0.2-0.4-0.4-0.7-0.6-1"/>
	<path class="st1" d="M523.6,232c-0.2-0.4-0.4-0.7-0.6-1c0.1-0.1,0.2-0.1,0.3-0.2C523.4,231.2,523.5,231.6,523.6,232z"/>
	<path class="st2" d="M522.9,329c0.1,0.1,0.3,0.1,0.4,0.2c-20,99.4-99.4,177.4-199.6,195.2c-14.2,2.5-28.8,3.8-43.7,3.8
		c-33.5,0-65.4-6.6-94.6-18.6l0,0l0,0c-1.6-0.7-3.2-1.4-4.8-2C93,469.1,31.8,381.7,31.8,280S93,90.8,180.6,52.5
		c1.6-0.7,3.2-1.4,4.9-2.1c0.2-0.1,0.4-0.2,0.6-0.2c29-11.9,60.7-18.4,94-18.4c14.9,0,29.5,1.3,43.7,3.8
		C424,53.4,503.4,131.3,523.4,230.8c-0.1,0.1-0.2,0.1-0.3,0.2c-20.3,10.6-43.3,16.5-67.7,16.5c-39.9,0-76.1-15.9-102.5-41.7
		c-0.7-0.7-1.5-1.4-2.2-2.1C332.1,186.5,307.3,176,280,176c-57.5,0-104.1,46.6-104.1,104.1S222.5,384.2,280,384.2
		c27.3,0,52.2-10.5,70.7-27.7c0.8-0.7,1.5-1.4,2.2-2.1c26.5-25.8,62.6-41.7,102.5-41.7C479.6,312.5,502.7,318.5,522.9,329z"/>
	<path class="st1" d="M523.6,327.7c-0.1,0.5-0.2,1-0.3,1.5c-0.1-0.1-0.3-0.1-0.4-0.2C523.2,328.5,523.4,328.1,523.6,327.7z"/>
</g>
<g id="Layer_2_1_">
	<path class="st3" d="M166.9,279.9c0,63.9,51.8,115.7,115.7,115.7c30.3,0,57.9-11.7,78.6-30.8c0.8-0.8,1.7-1.5,2.4-2.3
		c23.9-23.3,54.8-39.3,89.3-44.6c4.4-0.8,8.9-1.2,13.4-1.5c3.8-0.3,7.5-0.5,11.3-0.5c1.4,0,2.9,0,4.2,0c18.3,0.5,35,6.8,48.5,17.3
		c0.2,0.2,0.3,0.3,0.5,0.3c1.1,0.8,2.1,1.7,3,2.6c0.3,0.3,0.6,0.6,0.9,0.9c5.7,5.3,10.2,11.9,13.2,19.2c2.6,6.2,3.9,13.1,3.9,20.3
		v125.7c0,29.7-24,53.7-53.7,53.7c-29.3,0-53-23.4-53.7-52.5c0-0.5,0-0.8,0-1.2v1.2c-33,23.9-71.4,40.7-113.3,48.2
		c-15.8,2.9-32,4.4-48.6,4.4c-37.2,0-72.8-7.4-105.2-20.7l0,0l0,0c-1.8-0.8-3.6-1.5-5.4-2.3C75,490.1,6.9,392.9,6.9,279.9
		s68-210.2,165.3-252.8c1.8-0.8,3.6-1.5,5.4-2.3c0.2-0.2,0.5-0.2,0.6-0.3C210.5,11.4,245.7,4,282.6,4c16.5,0,32.9,1.5,48.6,4.2
		c111.3,19.8,199.7,106.4,221.9,217c-0.2,0-0.3,0.2-0.5,0.2c-22.5,11.7-48.2,18.3-75.3,18.3c-44.4,0-84.5-17.7-113.9-46.4
		c-0.8-0.8-1.7-1.5-2.4-2.4c-20.7-19.2-48.3-30.8-78.6-30.8C218.7,164.2,166.9,216,166.9,279.9z"/>
</g>
<image style="display:none;overflow:visible;" width="1920" height="1080" xlink:href="D68AF073.jpg"  transform="matrix(1 0 0 1 -476.3408 -96.2389)">
</image>
</svg>
