<?xml version="1.0" encoding="utf-8"?>
<!-- Generator: Adobe Illustrator 24.1.1, SVG Export Plug-In . SVG Version: 6.00 Build 0)  -->
<svg version="1.1" id="Layer_1" xmlns="http://www.w3.org/2000/svg" xmlns:xlink="http://www.w3.org/1999/xlink" x="0px" y="0px"
	 viewBox="0 0 450 395.5" style="enable-background:new 0 0 450 395.5;" xml:space="preserve">
<path d="M39.6,395.5c-3.2,0-6.4-1.3-8.7-3.6c-3.3-3.3-4.5-8.3-3-12.7L55.3,299c-18.4-30.7-28.1-65.6-28.1-101.3
	C27.2,88.7,116,0,225,0s197.8,88.7,197.8,197.8S334,395.5,225,395.5c-35.7,0-70.6-9.7-101.3-28.1l-80.1,27.4
	C42.3,395.3,40.9,395.5,39.6,395.5L39.6,395.5z M125.2,341.5c2.3,0,4.6,0.7,6.7,1.9c27.9,17.9,60.1,27.3,93.1,27.3
	c95.4,0,173-77.6,173-173s-77.6-173-173-173s-173,77.6-173,173c0,33,9.5,65.1,27.3,93.1c2,3.2,2.5,7.1,1.3,10.7l-21.1,61.8
	l61.8-21.1C122.6,341.7,123.9,341.5,125.2,341.5z"/>
</svg>
