<?xml version="1.0" encoding="utf-8"?>
<!-- Generator: Adobe Illustrator 24.1.1, SVG Export Plug-In . SVG Version: 6.00 Build 0)  -->
<svg version="1.1" id="Layer_1" xmlns="http://www.w3.org/2000/svg" xmlns:xlink="http://www.w3.org/1999/xlink" x="0px" y="0px"
	 viewBox="0 0 450 395.5" style="enable-background:new 0 0 450 395.5;" xml:space="preserve">
<g>
	<path d="M330.3-0.4c-47.9,0-83.5,29.4-105.5,71.2C202.8,29,167.3-0.4,119.3-0.4C50.2-0.4-0.2,57.6-0.2,128.4
		c0,93.6,89.3,152.3,216.3,263.5c5,4.3,12.4,4.3,17.4,0C360.4,280.8,449.8,222,449.8,128.4C449.8,57.6,399.4-0.4,330.3-0.4
		L330.3-0.4z M224.8,364.5C107.8,262.8,26.2,206.4,26.2,128.4C26.2,70,66.3,26,119.4,26c51.2,0,82.9,47.4,92.8,82.6
		c3.5,12.8,21.8,12.9,25.4,0c9.7-34.7,41.1-82.6,92.8-82.6c53.1,0,93.2,44,93.2,102.4C423.4,206.4,341.7,262.9,224.8,364.5z"/>
</g>
</svg>
