<?xml version="1.0" encoding="utf-8"?>
<!-- Generator: Adobe Illustrator 24.1.1, SVG Export Plug-In . SVG Version: 6.00 Build 0)  -->
<svg version="1.1" id="Capa_1" xmlns="http://www.w3.org/2000/svg" xmlns:xlink="http://www.w3.org/1999/xlink" x="0px" y="0px"
	 viewBox="0 0 512 512" style="enable-background:new 0 0 512 512;" xml:space="preserve">
<style type="text/css">
	.st0{display:none;}
	.st1{display:inline;}
</style>
<g class="st0">
	<g class="st1">
		<path d="M475.4,200.2L262.1,4.7c-7-6.4-17.6-6.2-24.4,0.3L36.2,200.6c-3.4,3.3-5.4,8-5.4,12.8v280.9c0,9.8,8,17.8,17.8,17.8h148.1
			c9.8,0,17.8-8,17.8-17.8V363.9h83v130.4c0,9.8,8,17.8,17.8,17.8h148.1c9.8,0,17.8-8,17.8-17.8v-281
			C481.2,208.3,479.1,203.6,475.4,200.2z M445.6,476.4H333V346.1c0-9.8-8-17.8-17.8-17.8H196.7c-9.8,0-17.8,8-17.8,17.8v130.4H66.4
			V220.9l184-178.7l195.2,178.9L445.6,476.4L445.6,476.4z"/>
	</g>
</g>
<path class="st0" d="M407,50.1H105c-57.9,0-105,47.1-105,105v162.2c0,46.2,30.3,86.4,74.3,99.3l50.7,50.7c2.8,2.8,6.6,4.4,10.6,4.4
	s7.8-1.6,10.6-4.4l46.5-46.5H407c57.9,0,105-47.1,105-105V155.1C512,97.2,464.9,50.1,407,50.1z M482,315.8c0,41.4-33.6,75-75,75
	H186.5c-4,0-7.8,1.6-10.6,4.4l-40.3,40.3l-42.9-42.9c-1.9-1.9-4.3-3.3-7-3.9C52.9,380.4,30,351.1,30,317.2V155.1
	c0-41.4,33.6-75,75-75h302c41.4,0,75,33.6,75,75V315.8z"/>
<path class="st0" d="M351.2,193.9H160.8c-8.3,0-15,6.7-15,15s6.7,15,15,15h190.5c8.3,0,15-6.7,15-15
	C366.2,200.6,359.5,193.9,351.2,193.9z"/>
<path class="st0" d="M351.2,246.9H160.8c-8.3,0-15,6.7-15,15c0,8.3,6.7,15,15,15h190.5c8.3,0,15-6.7,15-15
	C366.2,253.6,359.5,246.9,351.2,246.9z"/>
<path d="M256.2-1.7c-141.5,0-256,114.5-256,256c0,44.9,11.7,88.8,33.9,127.4l-33,102.4c-2.3,7.1-0.4,15,4.9,20.3
	c5.3,5.3,13.1,7.2,20.3,4.9l102.4-33c38.7,22.2,82.5,33.9,127.4,33.9c141.5,0,256-114.5,256-256C512.2,112.9,397.7-1.7,256.2-1.7z
	 M256.2,470.3c-40.6,0-80.1-11.3-114.3-32.7c-4.9-3.1-11-3.9-16.7-2.1l-73.9,23.8L75,385.4c1.8-5.6,1-11.7-2.1-16.7
	c-21.4-34.2-32.7-73.8-32.7-114.3c0-119.1,96.9-216,216-216s216,96.9,216,216S375.3,470.3,256.2,470.3z M281.2,254.3
	c0,13.8-11.2,25-25,25s-25-11.2-25-25c0-13.8,11.2-25,25-25S281.2,240.5,281.2,254.3z M381.2,254.3c0,13.8-11.2,25-25,25
	s-25-11.2-25-25c0-13.8,11.2-25,25-25S381.2,240.5,381.2,254.3z M181.2,254.3c0,13.8-11.2,25-25,25c-13.8,0-25-11.2-25-25
	c0-13.8,11.2-25,25-25C170,229.3,181.2,240.5,181.2,254.3z"/>
</svg>
