<?xml version="1.0" encoding="utf-8"?>
<!-- Generator: Adobe Illustrator 24.1.1, SVG Export Plug-In . SVG Version: 6.00 Build 0)  -->
<svg version="1.1" id="Capa_1" xmlns="http://www.w3.org/2000/svg" xmlns:xlink="http://www.w3.org/1999/xlink" x="0px" y="0px"
	 viewBox="0 0 512 512" style="enable-background:new 0 0 512 512;" xml:space="preserve">
<g>
	<path d="M88.9,314.5c-32.3,0-58.5-26.2-58.5-58.5s26.2-58.5,58.5-58.5s58.5,26.2,58.5,58.5S121.2,314.5,88.9,314.5z M88.9,219
		c-20.4,0-37,16.6-37,37s16.6,37,37,37s37-16.6,37-37S109.3,219,88.9,219z"/>
	<path d="M256,314.5c-32.3,0-58.5-26.2-58.5-58.5s26.2-58.5,58.5-58.5s58.5,26.2,58.5,58.5S288.3,314.5,256,314.5z M256,219
		c-20.4,0-37,16.6-37,37s16.6,37,37,37s37-16.6,37-37S276.4,219,256,219z"/>
	<path d="M423.1,314.5c-32.3,0-58.5-26.2-58.5-58.5s26.2-58.5,58.5-58.5s58.5,26.2,58.5,58.5S455.3,314.5,423.1,314.5z M423.1,219
		c-20.4,0-37,16.6-37,37s16.6,37,37,37s37-16.6,37-37S443.5,219,423.1,219z"/>
</g>
</svg>
