<?xml version="1.0" encoding="utf-8"?>
<!-- Generator: Adobe Illustrator 24.1.1, SVG Export Plug-In . SVG Version: 6.00 Build 0)  -->
<svg version="1.1" id="Capa_1" xmlns="http://www.w3.org/2000/svg" xmlns:xlink="http://www.w3.org/1999/xlink" x="0px" y="0px"
	 viewBox="0 0 512 512" style="enable-background:new 0 0 512 512;" xml:space="preserve">
<style type="text/css">
	.st0{display:none;}
	.st1{display:inline;}
</style>
<g class="st0">
	<g class="st1">
		<path d="M475.4,200.2L262.1,4.7c-7-6.4-17.6-6.2-24.4,0.3L36.2,200.6c-3.4,3.3-5.4,8-5.4,12.8v280.9c0,9.8,8,17.8,17.8,17.8h148.1
			c9.8,0,17.8-8,17.8-17.8V363.9h83v130.4c0,9.8,8,17.8,17.8,17.8h148.1c9.8,0,17.8-8,17.8-17.8V213.3
			C481.2,208.3,479.1,203.6,475.4,200.2z M445.6,476.4H333V346.1c0-9.8-8-17.8-17.8-17.8H196.7c-9.8,0-17.8,8-17.8,17.8v130.4H66.4
			V220.9L250.4,42.2l195.2,178.9L445.6,476.4L445.6,476.4z"/>
	</g>
</g>
<g>
	<g>
		<path d="M505.2,475.6L359.6,330c28.2-34.8,45.2-79.1,45.2-127.3C404.8,90.9,313.9,0,202.1,0S-0.5,90.9-0.5,202.7
			s90.9,202.7,202.7,202.7c48.2,0,92.5-17,127.3-45.2L475,505.7c4.2,4.2,9.6,6.3,15.1,6.3s10.9-2.1,15.1-6.3
			C513.5,497.4,513.5,483.9,505.2,475.6z M202.1,362.7c-88.2,0-160-71.8-160-160s71.8-160,160-160s160,71.8,160,160
			S290.4,362.7,202.1,362.7z"/>
	</g>
</g>
</svg>
