<?xml version="1.0" encoding="utf-8"?>
<!-- Generator: Adobe Illustrator 24.1.1, SVG Export Plug-In . SVG Version: 6.00 Build 0)  -->
<svg version="1.1" id="Capa_1" xmlns="http://www.w3.org/2000/svg" xmlns:xlink="http://www.w3.org/1999/xlink" x="0px" y="0px"
	 viewBox="0 0 512 512" style="enable-background:new 0 0 512 512;" xml:space="preserve">
<style type="text/css">
	.st0{display:none;}
	.st1{display:inline;}
</style>
<g class="st0">
	<g class="st1">
		<path d="M475.4,200.2L262.1,4.7c-7-6.4-17.6-6.2-24.4,0.3L36.2,200.6c-3.4,3.3-5.4,8-5.4,12.8v280.9c0,9.8,8,17.8,17.8,17.8h148.1
			c9.8,0,17.8-8,17.8-17.8V363.9h83v130.4c0,9.8,8,17.8,17.8,17.8h148.1c9.8,0,17.8-8,17.8-17.8v-281
			C481.2,208.3,479.1,203.6,475.4,200.2z M445.6,476.4H333V346.1c0-9.8-8-17.8-17.8-17.8H196.7c-9.8,0-17.8,8-17.8,17.8v130.4H66.4
			V220.9l184-178.7l195.2,178.9L445.6,476.4L445.6,476.4z"/>
	</g>
</g>
<path d="M114.4,499c-5.6,0-11.2-1.7-15.9-5.2c-8.8-6.4-13-17.4-10.6-28L120.8,321L9.3,223.2c-8.2-7.2-11.3-18.5-8-28.9
	c3.4-10.3,12.5-17.7,23.4-18.7l147.5-13.4l58.3-136.5c4.3-10,14.1-16.5,25-16.5c10.9,0,20.7,6.5,25,16.5l58.3,136.5l147.5,13.4
	c10.9,1,20,8.3,23.4,18.7c3.4,10.3,0.3,21.7-7.9,28.9L390.2,321l32.9,144.8c2.4,10.6-1.7,21.7-10.6,28c-8.8,6.4-20.6,6.9-29.9,1.3
	l-127.2-76l-127.2,76.1C124,497.7,119.2,499,114.4,499z M255.5,386.4c4.8,0,9.6,1.3,13.9,3.9l120,71.8l-31-136.7
	c-2.2-9.7,1.1-19.9,8.6-26.5l105.3-92.3L333,193.9c-10-0.9-18.7-7.2-22.6-16.5l-55-128.8l-55,128.8c-3.9,9.2-12.5,15.5-22.5,16.4
	L38.7,206.5l105.3,92.3c7.5,6.6,10.8,16.7,8.6,26.5l-31,136.7l120-71.8C245.9,387.7,250.7,386.4,255.5,386.4z M171.1,165
	C171.1,165,171.1,165,171.1,165L171.1,165z M339.9,164.9L339.9,164.9C339.9,164.9,339.9,164.9,339.9,164.9z"/>
</svg>
