<?xml version="1.0" encoding="utf-8"?>
<!-- Generator: Adobe Illustrator 24.1.1, SVG Export Plug-In . SVG Version: 6.00 Build 0)  -->
<svg version="1.1" id="Capa_1" xmlns="http://www.w3.org/2000/svg" xmlns:xlink="http://www.w3.org/1999/xlink" x="0px" y="0px"
	 viewBox="0 0 512 512" style="enable-background:new 0 0 512 512;" xml:space="preserve">
<style type="text/css">
	.st0{display:none;}
	.st1{display:inline;}
</style>
<g class="st0">
	<g class="st1">
		<path d="M475.4,200.2L262.1,4.7c-7-6.4-17.6-6.2-24.4,0.3L36.2,200.6c-3.4,3.3-5.4,8-5.4,12.8v280.9c0,9.8,8,17.8,17.8,17.8h148.1
			c9.8,0,17.8-8,17.8-17.8V363.9h83v130.4c0,9.8,8,17.8,17.8,17.8h148.1c9.8,0,17.8-8,17.8-17.8V213.3
			C481.2,208.3,479.1,203.6,475.4,200.2z M445.6,476.4H333V346.1c0-9.8-8-17.8-17.8-17.8H196.7c-9.8,0-17.8,8-17.8,17.8v130.4H66.4
			V220.9L250.4,42.2l195.2,178.9L445.6,476.4L445.6,476.4z"/>
	</g>
</g>
<g>
	<g>
		<path d="M256,0c-74.4,0-135,60.6-135,135s60.6,135,135,135s135-60.6,135-135S330.4,0,256,0z M256,240c-57.9,0-105-47.1-105-105
			S198.1,30,256,30s105,47.1,105,105S313.9,240,256,240z"/>
	</g>
</g>
<g>
	<g>
		<path d="M424,358.2c-37-37.5-86-58.2-138-58.2h-60c-52,0-101,20.7-138,58.2C51.3,395.5,31,444.8,31,497c0,8.3,6.7,15,15,15h420
			c8.3,0,15-6.7,15-15C481,444.8,460.7,395.5,424,358.2z M61.7,482C69.2,396.9,140,330,226,330h60c86,0,156.8,66.9,164.3,152H61.7z"
			/>
	</g>
</g>
</svg>
